<svg width="299" height="218" viewBox="0 0 299 218" fill="none" xmlns="http://www.w3.org/2000/svg">
<path d="M74.4612 87.0462L204.768 87.0462L204.768 178.054L74.4612 178.054L74.4612 87.0462Z" fill="#C9ACAC" fill-opacity="0.5"/>
<path d="M96.179 76.7044L226.486 76.7044L226.486 167.713L96.179 167.713L96.179 76.7044Z" fill="#AD8484" fill-opacity="0.3"/>
<path d="M96.0793 87.1458L96.0793 167.813L204.668 167.813L204.668 177.954L74.5607 177.954L74.5607 87.1458L96.0793 87.1458ZM226.386 76.804L226.386 167.613L204.868 167.613L204.868 86.9466L96.2795 86.9466L96.2795 76.804L226.386 76.804ZM204.668 87.1458L204.668 167.613L96.2795 167.613L96.2795 87.1458L204.668 87.1458Z" stroke="#EEDDDD" stroke-opacity="0.4" stroke-width="0.2"/>
<path d="M120.536 166.261C119.24 165.652 118.085 164.893 117.073 163.986C116.05 163.102 115.263 162.084 114.71 160.933C114.171 159.816 113.902 158.581 113.905 157.23C113.907 155.879 114.263 154.449 114.972 152.94C115.326 152.186 115.757 151.454 116.264 150.742C116.771 150.031 117.366 149.347 118.05 148.69C119.403 147.341 120.851 146.281 122.394 145.509C123.971 144.726 125.582 144.145 127.227 143.768C128.896 143.401 130.598 143.209 132.333 143.19C134.079 143.148 135.805 143.211 137.51 143.379C139.25 143.536 140.956 143.762 142.629 144.06C144.326 144.368 145.946 144.655 147.49 144.921C149.497 143.591 151.248 142.529 152.743 141.736C154.249 140.919 155.551 140.323 156.649 139.947C157.758 139.547 158.708 139.361 159.501 139.389C160.305 139.392 161.025 139.544 161.662 139.843C162.628 140.297 163.213 140.889 163.417 141.618C163.645 142.358 163.598 143.07 163.276 143.753C162.545 145.309 160.913 146.21 158.379 146.458C155.88 146.693 152.297 146.418 147.63 145.634C145.726 146.868 143.748 148.197 141.697 149.622C139.646 151.046 137.719 152.514 135.915 154.025C133.882 155.717 132.208 157.289 130.891 158.742C129.586 160.171 128.64 161.511 128.053 162.76C127.255 164.457 127.163 165.967 127.778 167.292C130.029 167.401 132.132 167.181 134.087 166.633C136.032 166.109 137.712 165.503 139.129 164.816C140.58 164.117 141.717 163.472 142.542 162.882C143.377 162.267 143.812 161.954 143.847 161.942C143.95 161.846 144.072 161.831 144.213 161.898C144.425 161.997 144.476 162.165 144.365 162.401C144.354 162.424 144.331 162.442 144.296 162.455C144.296 162.455 144.291 162.467 144.28 162.49C144.234 162.526 144.034 162.677 143.679 162.942C143.324 163.206 142.825 163.533 142.182 163.921C141.539 164.31 140.763 164.736 139.854 165.201C138.956 165.642 137.965 166.068 136.88 166.478C135.448 167.014 133.973 167.428 132.454 167.721C130.947 168.049 129.546 168.152 128.25 168.032C128.841 168.857 129.819 169.59 131.186 170.233C132.317 170.765 133.42 171.082 134.494 171.184C135.581 171.321 136.618 171.319 137.605 171.179C138.58 171.062 139.472 170.848 140.28 170.538C141.112 170.238 141.827 169.941 142.426 169.647C143.048 169.364 143.52 169.126 143.841 168.931C144.174 168.714 144.346 168.622 144.359 168.657C144.474 168.596 144.59 168.593 144.708 168.648C144.92 168.748 144.976 168.904 144.877 169.116C144.843 169.187 144.809 169.228 144.775 169.241C144.74 169.253 144.602 169.332 144.361 169.478C144.155 169.611 143.844 169.782 143.43 169.99C143.05 170.185 142.578 170.395 142.012 170.618C141.459 170.876 140.847 171.106 140.177 171.309C138.604 171.778 137.024 171.985 135.439 171.93C133.842 171.899 132.325 171.545 130.887 170.869C129.237 170.094 128.061 169.138 127.358 168.001C124.907 167.828 122.633 167.248 120.536 166.261ZM146.578 145.485C144.073 144.998 141.552 144.575 139.016 144.217C136.514 143.846 134.053 143.725 131.633 143.853C129.236 143.993 126.929 144.462 124.712 145.261C122.494 146.06 120.441 147.368 118.551 149.184C117.265 150.45 116.284 151.802 115.608 153.24C115.01 154.512 114.684 155.755 114.632 156.968C114.58 158.181 114.782 159.312 115.238 160.361C115.707 161.444 116.412 162.423 117.354 163.298C118.284 164.196 119.445 164.971 120.835 165.625C121.895 166.124 122.941 166.5 123.973 166.755C124.993 167.033 125.993 167.201 126.973 167.259C126.723 166.566 126.629 165.817 126.692 165.012C126.754 164.207 127.001 163.344 127.433 162.425C128.053 161.105 129.022 159.719 130.338 158.266C131.665 156.789 133.38 155.193 135.482 153.476C137.218 152.048 139.037 150.659 140.938 149.308C142.874 147.945 144.754 146.67 146.578 145.485ZM159.764 140.116C159.251 140.105 158.675 140.166 158.038 140.298C157.435 140.417 156.689 140.656 155.801 141.016C154.924 141.351 153.899 141.848 152.727 142.505C151.554 143.163 150.159 144.018 148.542 145.07C151.267 145.517 153.498 145.76 155.235 145.8C156.972 145.839 158.35 145.754 159.37 145.543C160.414 145.343 161.17 145.051 161.638 144.667C162.107 144.283 162.441 143.878 162.64 143.454C162.972 142.747 162.958 142.136 162.596 141.62C162.257 141.116 161.841 140.747 161.346 140.515C160.804 140.26 160.276 140.127 159.764 140.116Z" fill="white"/>
<path d="M208.095 32.6059C223.617 17.2601 290.883 26.6511 294.468 27.9394" stroke="#64727D" stroke-linecap="round"/>
<path d="M208.958 31.8904C193.943 15.2863 163.366 15.96 125.479 11.9113" stroke="#64727D" stroke-linecap="round"/>
<path d="M142.391 13.2015C144.254 13.3686 146.066 13.5357 147.829 13.7072C148.456 13.7683 149.077 13.8323 149.692 13.894C150.428 13.9678 151.155 14.0395 151.874 14.1144C152.244 14.1529 152.611 14.1942 152.977 14.233C153.9 14.3312 154.81 14.4269 155.704 14.527C155.761 14.5333 155.818 14.5405 155.875 14.5468C156.403 14.606 156.925 14.6657 157.443 14.7256C157.972 14.7868 158.496 14.8486 159.015 14.9106C161.453 15.2021 163.779 15.5016 165.998 15.8127C166.271 15.8511 166.543 15.8904 166.813 15.929C167.093 15.9692 167.372 16.0088 167.649 16.0493C170.18 16.4195 172.568 16.8063 174.823 17.2106C175.379 17.3102 175.926 17.4102 176.466 17.5121C177.573 17.7212 178.647 17.9369 179.689 18.1563C180.794 18.389 181.863 18.6255 182.898 18.8708C183.293 18.9644 183.682 19.0591 184.067 19.1546C184.281 19.2077 184.493 19.2633 184.704 19.317C185.645 19.5567 186.557 19.8008 187.439 20.053C187.63 20.1076 187.819 20.1646 188.008 20.2199C188.183 20.2712 188.357 20.3207 188.53 20.3726C188.682 20.4182 188.832 20.4659 188.983 20.512C189.181 20.5727 189.378 20.6321 189.573 20.6936C189.712 20.7376 189.851 20.7832 189.989 20.8276C190.188 20.8917 190.387 20.9545 190.583 21.0194C190.758 21.0772 190.931 21.137 191.103 21.1955C191.251 21.2458 191.4 21.2949 191.546 21.3457C191.792 21.4309 192.034 21.5184 192.274 21.605C192.344 21.63 192.414 21.6542 192.483 21.6794C192.688 21.7538 192.89 21.8303 193.091 21.9058C193.209 21.9501 193.326 21.9931 193.443 22.0378C193.555 22.0806 193.666 22.1248 193.776 22.1679C193.988 22.2505 194.198 22.3322 194.406 22.4161C194.458 22.4367 194.508 22.4586 194.559 22.4794C194.787 22.5722 195.013 22.665 195.236 22.7594C195.415 22.8351 195.592 22.9128 195.768 22.9895C195.867 23.0325 195.965 23.0747 196.063 23.118C196.234 23.1941 196.404 23.2719 196.572 23.349C196.689 23.4023 196.805 23.4542 196.92 23.508C197.042 23.5648 197.162 23.6228 197.282 23.6801C197.439 23.7552 197.595 23.8292 197.75 23.9053C197.844 23.9514 197.936 23.9996 198.029 24.0461C198.194 24.1286 198.358 24.2103 198.52 24.2939C198.626 24.349 198.732 24.4054 198.837 24.4608C198.993 24.5431 199.148 24.6249 199.301 24.7082C199.417 24.771 199.531 24.8348 199.644 24.8982C199.765 24.965 199.884 25.0318 200.002 25.0993C200.146 25.1813 200.288 25.2641 200.429 25.3471C200.529 25.4057 200.628 25.4639 200.727 25.523C200.885 25.6181 201.042 25.7146 201.197 25.8111C201.266 25.8536 201.334 25.8954 201.402 25.9382C201.536 26.0224 201.667 26.1086 201.799 26.1939C201.904 26.2619 202.008 26.3291 202.111 26.3977C202.217 26.468 202.322 26.5395 202.426 26.6105C202.548 26.6932 202.669 26.7754 202.788 26.8591C202.873 26.9181 202.956 26.978 203.039 27.0375C203.17 27.1309 203.3 27.2245 203.429 27.3191C203.497 27.3692 203.564 27.42 203.632 27.4704C203.772 27.5752 203.911 27.6797 204.048 27.7859C204.136 27.8535 204.222 27.9225 204.308 27.9906C204.418 28.0778 204.528 28.1646 204.636 28.2528C204.738 28.3354 204.839 28.4191 204.939 28.5027C205.032 28.5802 205.125 28.6573 205.216 28.7355C205.322 28.8256 205.425 28.9169 205.529 29.008C205.613 29.0817 205.697 29.1551 205.78 29.2295C205.861 29.3018 205.94 29.3751 206.02 29.4481C206.129 29.5488 206.239 29.6493 206.347 29.7513C206.423 29.8228 206.498 29.8954 206.572 29.9675C206.672 30.0637 206.772 30.1599 206.87 30.2572C206.95 30.337 207.03 30.4177 207.109 30.4983C207.209 30.599 207.308 30.6997 207.406 30.8015C207.473 30.8713 207.538 30.942 207.605 31.0124C207.711 31.1251 207.817 31.2377 207.921 31.3519C208.063 31.5071 208.202 31.6646 208.34 31.8225C208.527 32.0498 208.628 32.3355 208.63 32.6323L208.625 32.7662L198.839 137.568C198.764 138.373 197.997 138.925 197.211 138.744L113.173 118.623C112.516 118.466 112.08 117.843 112.158 117.172L112.157 117.171L124.205 13.0167C124.286 12.3148 124.924 11.7942 125.636 11.84C127.204 11.9563 128.744 12.0737 130.255 12.1909C130.899 12.2408 131.537 12.2922 132.171 12.3423C133.121 12.4174 134.059 12.4912 134.985 12.5669C135.672 12.6229 136.352 12.6804 137.026 12.7368C137.815 12.8028 138.595 12.8673 139.367 12.9338C140.39 13.0219 141.398 13.1123 142.391 13.2015Z" fill="#87B3CF" stroke="#7987A5" stroke-width="0.5"/>
<path d="M277.811 26.0866C275.95 25.906 274.138 25.7347 272.374 25.577C271.746 25.5208 271.124 25.4687 270.508 25.4155C269.772 25.3518 269.044 25.2876 268.324 25.2282C267.953 25.1976 267.584 25.1701 267.218 25.1406C266.292 25.066 265.381 24.9918 264.483 24.9245C264.426 24.9202 264.368 24.9166 264.311 24.9124C263.782 24.8729 263.258 24.8348 262.738 24.7978C262.207 24.76 261.68 24.7237 261.158 24.6886C258.708 24.5236 256.368 24.3874 254.13 24.2824C253.854 24.2695 253.58 24.2578 253.307 24.2458C253.024 24.2333 252.743 24.2206 252.463 24.2092C249.907 24.1043 247.489 24.0424 245.198 24.0222C244.634 24.0172 244.077 24.0141 243.528 24.0143C242.401 24.0148 241.306 24.028 240.241 24.0508C239.112 24.0749 238.017 24.1093 236.955 24.1588C236.55 24.1777 236.15 24.1986 235.754 24.2212C235.534 24.2338 235.315 24.2492 235.098 24.2629C234.129 24.3242 233.188 24.3954 232.274 24.4799C232.076 24.4982 231.88 24.5191 231.684 24.5386C231.503 24.5566 231.322 24.573 231.143 24.592C230.985 24.6087 230.828 24.6277 230.672 24.6451C230.466 24.6681 230.261 24.6901 230.058 24.7143C229.913 24.7317 229.769 24.7509 229.625 24.769C229.417 24.7951 229.21 24.82 229.005 24.8475C228.823 24.8719 228.642 24.8987 228.462 24.9242C228.307 24.9462 228.152 24.967 227.998 24.9898C227.742 25.0281 227.487 25.0693 227.235 25.1098C227.162 25.1216 227.089 25.1323 227.016 25.1443C226.801 25.1796 226.588 25.2173 226.377 25.2543C226.253 25.276 226.129 25.2964 226.006 25.3187C225.888 25.3401 225.771 25.3631 225.655 25.385C225.431 25.4269 225.209 25.4683 224.99 25.5122C224.935 25.523 224.882 25.5351 224.828 25.5461C224.586 25.5951 224.347 25.6445 224.11 25.6959C223.92 25.7371 223.732 25.7808 223.545 25.8236C223.44 25.8476 223.336 25.8708 223.232 25.8953C223.049 25.9383 222.868 25.9835 222.689 26.028C222.564 26.0588 222.44 26.0883 222.317 26.1199C222.187 26.1531 222.058 26.1879 221.93 26.222C221.762 26.2667 221.594 26.3105 221.428 26.3566C221.327 26.3846 221.227 26.4148 221.128 26.4433C220.95 26.4939 220.774 26.5438 220.599 26.596C220.485 26.6304 220.371 26.6663 220.257 26.7014C220.088 26.7534 219.921 26.8049 219.755 26.8585C219.63 26.8988 219.506 26.9404 219.382 26.9816C219.252 27.0251 219.122 27.0686 218.994 27.113C218.837 27.167 218.682 27.2221 218.528 27.2775C218.419 27.3166 218.311 27.3554 218.203 27.3953C218.03 27.4594 217.858 27.5253 217.688 27.5913C217.612 27.6204 217.537 27.6488 217.463 27.6782C217.316 27.7363 217.17 27.7966 217.025 27.8561C216.91 27.9035 216.795 27.9502 216.681 27.9985C216.564 28.048 216.448 28.0989 216.332 28.1494C216.197 28.2081 216.063 28.2666 215.93 28.3266C215.836 28.369 215.743 28.4124 215.65 28.4555C215.504 28.5231 215.359 28.5909 215.215 28.6601C215.139 28.6967 215.064 28.7342 214.988 28.7713C214.831 28.8483 214.675 28.9252 214.52 29.0042C214.422 29.0544 214.325 29.1062 214.227 29.1573C214.103 29.2225 213.979 29.2875 213.856 29.3541C213.74 29.4165 213.626 29.4801 213.512 29.5437C213.407 29.6026 213.301 29.6612 213.197 29.7211C213.076 29.7901 212.957 29.8607 212.839 29.931C212.742 29.9879 212.646 30.0444 212.551 30.1022C212.458 30.1583 212.367 30.2157 212.275 30.2726C212.149 30.3513 212.022 30.4297 211.897 30.51C211.809 30.5662 211.723 30.6238 211.636 30.6808C211.52 30.7568 211.404 30.8329 211.29 30.9103C211.196 30.9738 211.103 31.0385 211.01 31.1029C210.894 31.1835 210.777 31.2641 210.663 31.3461C210.584 31.4023 210.506 31.4596 210.428 31.5164C210.303 31.6076 210.178 31.6985 210.054 31.7915C209.886 31.9178 209.72 32.0469 209.555 32.1764C209.329 32.3651 209.177 32.6271 209.12 32.9185L209.101 33.0511L199.315 137.853C199.24 138.658 199.891 139.343 200.697 139.31L287.008 135.095C287.682 135.062 288.226 134.531 288.274 133.857L288.275 133.856L295.718 29.272C295.768 28.5672 295.237 27.9375 294.529 27.8507C292.966 27.6746 291.432 27.5049 289.925 27.3403C289.283 27.2702 288.646 27.2025 288.014 27.1344C287.067 27.0324 286.131 26.9312 285.207 26.834C284.522 26.762 283.842 26.6926 283.17 26.6232C282.382 26.542 281.604 26.461 280.833 26.3835C279.812 26.2807 278.804 26.183 277.811 26.0866Z" fill="#87B3CF" stroke="#7987A5" stroke-width="0.5"/>
<path d="M194.858 138.569L113.32 128.642L112.72 118.568L194.858 138.569Z" fill="#454B5A" stroke="#4A5365" stroke-width="0.3"/>
<path d="M203.042 139.333L284.241 144.602L286.696 134.813L203.042 139.333Z" fill="#454B5A" stroke="#4A5365" stroke-width="0.3"/>
<path d="M213.645 60.7489C239.946 59.4 254.521 59.8236 280.489 60.7721M211.803 80.47C236.368 80.033 251.58 80.205 278.648 80.4932M212.761 70.2149C237.748 69.6291 252.779 69.8445 279.605 70.2381M210.92 89.9359C235.361 88.8453 250.647 89.2807 277.764 89.9592M209.815 101.768C235.301 100.606 250.15 101.016 276.659 101.792M208.71 113.601C234.711 111.748 249.379 112.338 275.554 113.624M214.521 51.3596C237.644 49.1123 253.02 49.6775 281.366 51.3828" stroke="#8186B9" stroke-linecap="round"/>
<path d="M196.307 59.0276C170.71 52.8329 156.309 50.5508 130.614 46.6753M194.465 78.7487C170.407 73.7716 155.425 71.1243 128.772 66.3964M195.423 68.4936C170.976 63.292 156.165 60.7209 129.73 56.1413M193.581 88.2146C169.765 82.618 154.662 80.2159 127.888 75.8623M192.477 100.047C167.646 94.1866 152.978 91.8398 126.784 87.6949M191.372 111.88C166.163 105.246 151.64 103.11 125.679 99.5274M197.184 49.6383C174.877 43.1491 159.662 40.8579 131.49 37.286" stroke="#8186B9" stroke-linecap="round"/>
<path d="M113.4 126.41L191.126 137.646" stroke="#343947" stroke-width="0.1"/>
<path d="M113.621 124.044L191.126 137.646" stroke="#343947" stroke-width="0.1"/>
<path d="M113.842 121.677L191.126 137.646" stroke="#343947" stroke-width="0.1"/>
<path d="M284.34 142.372L207.139 139.142" stroke="#343947" stroke-width="0.1"/>
<path d="M284.561 140.005L207.139 139.142" stroke="#343947" stroke-width="0.1"/>
<path d="M284.782 137.639L207.139 139.142" stroke="#343947" stroke-width="0.1"/>
<path d="M56.8801 68.4309H187.187V159.439H56.8801V68.4309Z" fill="#E7DDC7" fill-opacity="0.2"/>
<path d="M187.087 68.5305V159.339H56.9797V68.5305H187.087Z" stroke="#EEDDDD" stroke-opacity="0.4" stroke-width="0.2"/>
<circle cx="59.0454" cy="117.134" r="58.7954" fill="#3F3232" stroke="#6F5050" stroke-width="0.5"/>
<path d="M58.1232 61.1069C88.5567 61.1071 113.228 85.7788 113.228 116.212C113.227 146.646 88.5566 171.317 58.1232 171.317C27.6897 171.317 3.018 146.646 3.01776 116.212C3.01776 85.7787 27.6896 61.1069 58.1232 61.1069Z" fill="#816865" stroke="#6F5050" stroke-width="0.5"/>
<circle cx="78.4196" cy="92.2247" r="21.1194" fill="#FAEFEF" stroke="#FFD0D0" stroke-width="0.2"/>
<path d="M70.1164 122.77C81.2666 122.77 90.3137 132.222 90.3137 143.89C90.3135 155.558 81.2666 165.009 70.1164 165.009C58.9662 165.009 49.9193 155.558 49.9191 143.89C49.9191 132.222 58.9661 122.77 70.1164 122.77Z" fill="#FAEFEF" stroke="#FFD0D0" stroke-width="0.2"/>
<circle cx="28.6001" cy="114.367" r="21.1194" fill="#FAEFEF" stroke="#FFD0D0" stroke-width="0.2"/>
</svg>
